# xmcd CD database file
#
# Track frame offsets:
#	150
#	10797
#	29617
#	60087
#	75397
#	107905
#	122802
#	140590
#	157077
#	180342
#	198807
#	214467
#
# Disc length: 3095 seconds
#
# Revision: 0
# Processed by: cddbd v1.4PL0 Copyright (c) Steve Scherf et al.
# Submitted via: CDex 1.51
#
DISCID=9c0c150c
DTITLE=Richard Bargel - Fresh Tracks
DYEAR=1900
DGENRE=Blues
TTITLE0=Lazy Bones
TTITLE1=I'm So Jealous
TTITLE2=Skylab Blues
TTITLE3=Don't Tell Me Lies
TTITLE4=Lonely Wolf
TTITLE5=What To Do
TTITLE6=What A Fool I Am
TTITLE7=No Good Fibes
TTITLE8=War And Peace
TTITLE9=Angela Brown
TTITLE10=Pencil And Lead
TTITLE11=Long Gone Man
EXTD=
EXTT0=
EXTT1=
EXTT2=
EXTT3=
EXTT4=
EXTT5=
EXTT6=
EXTT7=
EXTT8=
EXTT9=
EXTT10=
EXTT11=
PLAYORDER=
